<?xml version="1.0" encoding="UTF-8"?>
<svg version="1.1" xmlns="http://www.w3.org/2000/svg" width="231" height="231">
<path d="M0 0 C0.83265381 0.00523682 1.66530762 0.01047363 2.52319336 0.01586914 C3.42231445 0.0190918 4.32143555 0.02231445 5.24780273 0.02563477 C6.66609375 0.03820312 6.66609375 0.03820312 8.11303711 0.05102539 C9.06243164 0.05553711 10.01182617 0.06004883 10.98999023 0.06469727 C13.34356776 0.07652429 15.69702188 0.09300514 18.05053711 0.11352539 C18.67553711 2.48852539 18.67553711 2.48852539 19.05053711 5.11352539 C18.39053711 5.77352539 17.73053711 6.43352539 17.05053711 7.11352539 C15.73053711 7.11352539 14.41053711 7.11352539 13.05053711 7.11352539 C13.05053711 8.43352539 13.05053711 9.75352539 13.05053711 11.11352539 C14.14366211 11.21665039 15.23678711 11.31977539 16.36303711 11.42602539 C20.30294347 12.1605842 20.51851011 12.4333136 23.05053711 15.11352539 C24.4514074 16.03386459 25.86969511 16.92801165 27.30053711 17.80102539 C31.53059012 20.54055401 34.52276959 23.63875505 37.64038086 27.57446289 C38.10573242 28.08235352 38.57108398 28.59024414 39.05053711 29.11352539 C39.71053711 29.11352539 40.37053711 29.11352539 41.05053711 29.11352539 C43.05053711 36.73852539 43.05053711 36.73852539 43.05053711 40.11352539 C43.71053711 40.44352539 44.37053711 40.77352539 45.05053711 41.11352539 C44.93607439 43.67688793 44.8093421 46.23865984 44.67553711 48.80102539 C44.64459961 49.52225586 44.61366211 50.24348633 44.58178711 50.98657227 C44.35516269 55.12246794 43.76828002 58.29016213 42.05053711 62.11352539 C41.88255449 64.8223948 41.88255449 64.8223948 42.05053711 67.11352539 C40.56553711 67.60852539 40.56553711 67.60852539 39.05053711 68.11352539 C37.44156811 69.77656773 37.44156811 69.77656773 35.86303711 71.80102539 C29.20749273 79.58675656 22.12070553 84.51038306 11.75366211 85.39477539 C4.04023162 85.59687401 -2.66161895 84.60300129 -9.94946289 82.11352539 C-11.43446289 81.61852539 -11.43446289 81.61852539 -12.94946289 81.11352539 C-13.27946289 80.12352539 -13.60946289 79.13352539 -13.94946289 78.11352539 C-15.47902698 76.55918215 -15.47902698 76.55918215 -17.32446289 75.11352539 C-19.14858404 73.6231796 -20.8967885 72.16697063 -22.55102539 70.48852539 C-23.92284708 68.99841675 -23.92284708 68.99841675 -25.94946289 68.11352539 C-26.35689473 66.12729519 -26.66765128 64.12143309 -26.94946289 62.11352539 C-27.29426256 60.32003253 -27.64890785 58.52841212 -28.01196289 56.73852539 C-28.18856445 55.86454102 -28.36516602 54.99055664 -28.54711914 54.09008789 C-28.67989258 53.43782227 -28.81266602 52.78555664 -28.94946289 52.11352539 C-30.59946289 52.11352539 -32.24946289 52.11352539 -33.94946289 52.11352539 C-34.92747014 48.97715733 -35.16380376 47.58053298 -33.76977539 44.54321289 C-32.9305957 43.27864258 -32.9305957 43.27864258 -32.07446289 41.98852539 C-30.31277001 39.29272559 -28.97168138 37.18018087 -27.94946289 34.11352539 C-24.66250056 33.31399401 -23.23923097 33.01693603 -19.94946289 34.11352539 C-19.82571289 35.13446289 -19.82571289 35.13446289 -19.69946289 36.17602539 C-18.72613761 39.98821609 -16.99138834 42.75422868 -14.94946289 46.11352539 C-14.28946289 46.11352539 -13.62946289 46.11352539 -12.94946289 46.11352539 C-13.69946289 49.05102539 -13.69946289 49.05102539 -14.94946289 52.11352539 C-17.07446289 52.98852539 -17.07446289 52.98852539 -18.94946289 53.11352539 C-18.51633789 54.16540039 -18.51633789 54.16540039 -18.07446289 55.23852539 C-16.94946289 58.11352539 -16.94946289 58.11352539 -16.13696289 61.11352539 C-13.86304553 66.85815871 -9.12847724 70.02815514 -3.94946289 73.11352539 C-1.80212362 73.81867385 -1.80212362 73.81867385 0.05053711 74.11352539 C1.04053711 74.60852539 1.04053711 74.60852539 2.05053711 75.11352539 C11.27181316 76.29997622 18.43180519 74.43311336 26.05053711 69.11352539 C31.8972092 63.40282241 34.32592392 56.95934521 34.42553711 48.80102539 C34.27494273 39.98623423 31.34039769 33.26043459 25.05053711 27.11352539 C19.37096915 23.57654894 14.24201058 21.97198331 7.55053711 21.92602539 C6.61209961 21.9118457 5.67366211 21.89766602 4.70678711 21.88305664 C1.25299691 22.18272373 -0.87220797 23.4448844 -3.76196289 25.23852539 C-6.90827259 26.49704927 -9.60040854 26.36160349 -12.94946289 26.11352539 C-14.94946289 24.11352539 -14.94946289 24.11352539 -15.07446289 21.80102539 C-13.3102318 17.58647334 -9.9432905 16.08299021 -5.94946289 14.11352539 C-4.47844337 13.57010753 -2.99940425 13.04773415 -1.51196289 12.55102539 C-0.33633789 12.07665039 0.83928711 11.60227539 2.05053711 11.11352539 C2.82537129 9.08436742 2.82537129 9.08436742 3.05053711 7.11352539 C0.57553711 6.61852539 0.57553711 6.61852539 -1.94946289 6.11352539 C-2.33165056 4.45737882 -2.66341391 2.78895515 -2.94946289 1.11352539 C-1.94946289 0.11352539 -1.94946289 0.11352539 0 0 Z " fill="#EA8D4E" transform="translate(110.949462890625,66.886474609375)"/>
<path d="M0 0 C6.58490076 3.35658903 12.03153926 8.43216467 15.03125 15.2265625 C17.90716704 24.10082079 16.58947816 30.99037971 12.40625 39.2265625 C8.99700388 44.516772 4.24006604 47.90411501 -1.40625 50.5390625 C-5.78470306 51.48343473 -10.13549889 51.74835437 -14.59375 51.2265625 C-15.58375 50.5665625 -16.57375 49.9065625 -17.59375 49.2265625 C-17.26375 48.2365625 -16.93375 47.2465625 -16.59375 46.2265625 C-14.94375 46.2265625 -13.29375 46.2265625 -11.59375 46.2265625 C-11.59375 45.5665625 -11.59375 44.9065625 -11.59375 44.2265625 C-8.29375 44.5565625 -4.99375 44.8865625 -1.59375 45.2265625 C-1.26375 43.9065625 -0.93375 42.5865625 -0.59375 41.2265625 C2.37625 40.7315625 2.37625 40.7315625 5.40625 40.2265625 C6.50283936 36.93679442 6.20578138 35.51352483 5.40625 32.2265625 C7.05625 32.5565625 8.70625 32.8865625 10.40625 33.2265625 C10.07625 32.2365625 9.74625 31.2465625 9.40625 30.2265625 C10.06625 30.2265625 10.72625 30.2265625 11.40625 30.2265625 C10.41625 28.2465625 9.42625 26.2665625 8.40625 24.2265625 C9.06625 23.5665625 9.72625 22.9065625 10.40625 22.2265625 C10.57306109 19.14308424 10.57306109 19.14308424 10.40625 16.2265625 C9.08625 16.2265625 7.76625 16.2265625 6.40625 16.2265625 C5.74625 13.9165625 5.08625 11.6065625 4.40625 9.2265625 C3.41625 9.2265625 2.42625 9.2265625 1.40625 9.2265625 C0.41625 8.8965625 -0.57375 8.5665625 -1.59375 8.2265625 C-1.92375 7.2365625 -2.25375 6.2465625 -2.59375 5.2265625 C-5.09822516 4.00786321 -5.09822516 4.00786321 -7.59375 3.2265625 C-7.92375 4.2165625 -8.25375 5.2065625 -8.59375 6.2265625 C-9.58375 5.8965625 -10.57375 5.5665625 -11.59375 5.2265625 C-11.59375 4.5665625 -11.59375 3.9065625 -11.59375 3.2265625 C-12.2125 3.4121875 -12.83125 3.5978125 -13.46875 3.7890625 C-15.59375 4.2265625 -15.59375 4.2265625 -17.59375 3.2265625 C-17.28125 1.2890625 -17.28125 1.2890625 -16.59375 -0.7734375 C-10.90527093 -2.66959719 -5.54588655 -2.03222555 0 0 Z " fill="#010102" transform="translate(128.59375,90.7734375)"/>
<path d="M0 0 C0.96808594 0.60585937 1.93617188 1.21171875 2.93359375 1.8359375 C7.37036909 4.85531804 10.75385142 8.49147051 12.5625 13.625 C11.8125 17.0625 11.8125 17.0625 10.5625 19.625 C6.1552688 17.78011252 3.87384008 15.88137933 0.98046875 12.1171875 C-2.52013342 8.43335822 -7.57799471 6.71811812 -12.4375 5.625 C-12.4375 4.965 -12.4375 4.305 -12.4375 3.625 C-15.7375 3.625 -19.0375 3.625 -22.4375 3.625 C-22.7675 2.635 -23.0975 1.645 -23.4375 0.625 C-22.365 0.33625 -21.2925 0.0475 -20.1875 -0.25 C-16.64186005 -1.19696581 -16.64186005 -1.19696581 -14.3125 -2.4375 C-8.16033497 -5.51358251 -5.41310475 -3.40745239 0 0 Z " fill="#EF9050" transform="translate(136.4375,83.375)"/>
<path d="M0 0 C1.36125 0.37125 1.36125 0.37125 2.75 0.75 C2.42 1.41 2.09 2.07 1.75 2.75 C1.09 2.75 0.43 2.75 -0.25 2.75 C0.08 4.07 0.41 5.39 0.75 6.75 C-12.03426582 18.94240166 -12.03426582 18.94240166 -21.25 19 C-22.5844432 18.93688444 -23.91867968 18.86094336 -25.25 18.75 C-25.3325 17.96625 -25.415 17.1825 -25.5 16.375 C-25.97806339 13.60250896 -25.97806339 13.60250896 -28.3125 12.4375 C-28.951875 12.210625 -29.59125 11.98375 -30.25 11.75 C-29.05375 11.646875 -27.8575 11.54375 -26.625 11.4375 C-23.59954932 11.07593472 -21.97804034 10.61124507 -19.1875 9.1875 C-15.6726934 7.46748826 -13.11376273 7.51817424 -9.25 7.75 C-9.0025 7.1725 -8.755 6.595 -8.5 6 C-6.2426004 1.93668072 -4.8941563 -0.37647356 0 0 Z " fill="#F79351" transform="translate(146.25,132.25)"/>
<path d="M0 0 C1.45922693 0.11409593 2.91740598 0.24165544 4.375 0.375 C5.59316406 0.47941406 5.59316406 0.47941406 6.8359375 0.5859375 C9 1 9 1 11 3 C13.66242821 3.46290221 13.66242821 3.46290221 16.625 3.625 C18.12933594 3.73714844 18.12933594 3.73714844 19.6640625 3.8515625 C20.43492188 3.90054688 21.20578125 3.94953125 22 4 C21.50886719 4.43957031 21.01773438 4.87914062 20.51171875 5.33203125 C18.72458275 6.95842292 18.72458275 6.95842292 18.8125 9.6875 C18.874375 10.450625 18.93625 11.21375 19 12 C20.65 12 22.3 12 24 12 C24 12.33 24 12.66 24 13 C15.10485489 13.35061156 7.44657145 12.88528901 -1 10 C-1.99 9.67 -2.98 9.34 -4 9 C-4.6875 6.9375 -4.6875 6.9375 -5 5 C-2.525 5.495 -2.525 5.495 0 6 C0 5.34 0 4.68 0 4 C0.66 4 1.32 4 2 4 C2 3.01 2 2.02 2 1 C1.34 0.67 0.68 0.34 0 0 Z " fill="#EC8C4C" transform="translate(102,139)"/>
<path d="M0 0 C0.99 0.33 1.98 0.66 3 1 C2.40688437 5.1518094 0.14951917 7.87928766 -2.3125 11.1875 C-2.70373047 11.73341797 -3.09496094 12.27933594 -3.49804688 12.84179688 C-5.20181783 15.12196795 -6.48646175 16.78750141 -9.15234375 17.890625 C-11.29203041 18.01728721 -12.96677132 17.65353779 -15 17 C-14.50659631 10.58575198 -14.50659631 10.58575198 -12 7.6875 C-11.01 6.8521875 -11.01 6.8521875 -10 6 C-9.67 5.34 -9.34 4.68 -9 4 C-7.8553125 3.7834375 -7.8553125 3.7834375 -6.6875 3.5625 C-3.92711952 3.18664406 -3.92711952 3.18664406 -1.875 1.375 C-1.25625 0.92125 -0.6375 0.4675 0 0 Z " fill="#010102" transform="translate(129,104)"/>
<path d="M0 0 C3.87941279 2.42463299 7.6846924 6.05035763 10 10 C10 10.99 10 11.98 10 13 C9.34 13 8.68 13 8 13 C8 13.66 8 14.32 8 15 C4.26646636 14.7128051 1.67595861 14.46797134 -1.4375 12.3125 C-3.44567091 9.34040706 -3.29996472 7.52458547 -3 4 C-3 3.01 -3 2.02 -3 1 C-2.01 0.67 -1.02 0.34 0 0 Z " fill="#F8904C" transform="translate(94,130)"/>
<path d="M0 0 C3.23947168 0.3364828 5.02231428 1.56777702 7.3125 3.8125 C7.84488281 4.31394531 8.37726563 4.81539063 8.92578125 5.33203125 C10 7 10 7 9.85546875 9.07421875 C9 11 9 11 6 13 C4.65499045 11.93119777 3.32428562 10.84437492 2 9.75 C1.2575 9.14671875 0.515 8.5434375 -0.25 7.921875 C-2 6 -2 6 -2 2 C-1.34 1.34 -0.68 0.68 0 0 Z " fill="#010102" transform="translate(145,79)"/>
<path d="M0 0 C1.4606285 2.64738916 2 3.89448334 2 7 C3.32 6.67 4.64 6.34 6 6 C6.66 7.98 7.32 9.96 8 12 C7.01 12.33 6.02 12.66 5 13 C3.33289654 14.49985609 3.33289654 14.49985609 2 16 C1.67 15.01 1.34 14.02 1 13 C1.66 12.67 2.32 12.34 3 12 C1.35 11.67 -0.3 11.34 -2 11 C-2.37511719 11.5053125 -2.75023437 12.010625 -3.13671875 12.53125 C-7.36878216 17.90394511 -7.36878216 17.90394511 -10.875 18.4375 C-11.57625 18.293125 -12.2775 18.14875 -13 18 C-12.29875 17.505 -11.5975 17.01 -10.875 16.5 C-5.613681 11.92494 -1.71286445 6.85145779 0 0 Z " fill="#D38146" transform="translate(145,122)"/>
<path d="M0 0 C0.99 0 1.98 0 3 0 C3.33 0.66 3.66 1.32 4 2 C4.66 2 5.32 2 6 2 C8.25 4.625 8.25 4.625 10 8 C9.25 11.375 9.25 11.375 8 14 C5.625 13.3125 5.625 13.3125 3 12 C1.875 9.625 1.875 9.625 1 7 C0.04175747 5.63634717 -0.94721175 4.29205831 -2 3 C-1.34 3 -0.68 3 0 3 C0 2.01 0 1.02 0 0 Z " fill="#FC904B" transform="translate(139,89)"/>
<path d="M0 0 C1.65 0 3.3 0 5 0 C5.33 2.31 5.66 4.62 6 7 C4.68 7.99 3.36 8.98 2 10 C2.309375 10.928125 2.309375 10.928125 2.625 11.875 C2.74875 12.57625 2.8725 13.2775 3 14 C2.34 14.66 1.68 15.32 1 16 C0.54625 15.525625 0.0925 15.05125 -0.375 14.5625 C-1.93258204 12.90972192 -1.93258204 12.90972192 -4 12 C-4 10.02 -4 8.04 -4 6 C-3.01 5.67 -2.02 5.34 -1 5 C-0.67 3.35 -0.34 1.7 0 0 Z " fill="#DB854A" transform="translate(89,123)"/>
<path d="M0 0 C1.15242188 0.00902344 2.30484375 0.01804687 3.4921875 0.02734375 C4.36101562 0.03894531 5.22984375 0.05054687 6.125 0.0625 C6.455 1.7125 6.785 3.3625 7.125 5.0625 C6.135 5.5575 6.135 5.5575 5.125 6.0625 C5.125 4.4125 5.125 2.7625 5.125 1.0625 C3.6449159 1.17612262 2.16589926 1.30372908 0.6875 1.4375 C-0.54806641 1.54191406 -0.54806641 1.54191406 -1.80859375 1.6484375 C-2.83146484 1.85339844 -2.83146484 1.85339844 -3.875 2.0625 C-4.205 2.7225 -4.535 3.3825 -4.875 4.0625 C-4.215 4.0625 -3.555 4.0625 -2.875 4.0625 C-2.875 4.7225 -2.875 5.3825 -2.875 6.0625 C-3.865 6.7225 -4.855 7.3825 -5.875 8.0625 C-7.06732613 10.11253955 -7.06732613 10.11253955 -7.875 12.0625 C-7.875 10.0825 -7.875 8.1025 -7.875 6.0625 C-9.525 5.7325 -11.175 5.4025 -12.875 5.0625 C-12.875 3.7425 -12.875 2.4225 -12.875 1.0625 C-8.52167264 0.22226812 -4.43057481 -0.04520995 0 0 Z " fill="#F09759" transform="translate(122.875,66.9375)"/>
<path d="M0 0 C6.97096189 5.45553539 6.97096189 5.45553539 8 9 C7.9375 11.0625 7.9375 11.0625 7 13 C4.5625 14.625 4.5625 14.625 2 16 C1.34 16.66 0.68 17.32 0 18 C-0.66 15.03 -1.32 12.06 -2 9 C-1.67 9.66 -1.34 10.32 -1 11 C-0.34 11 0.32 11 1 11 C2.29042763 8.73398135 2.29042763 8.73398135 3 6 C1.69655172 3.78963709 1.69655172 3.78963709 0 2 C0 1.34 0 0.68 0 0 Z " fill="#D8884F" transform="translate(145,91)"/>
<path d="M0 0 C1.45945288 0.08708669 2.91765868 0.19526907 4.375 0.3125 C5.59316406 0.39951172 5.59316406 0.39951172 6.8359375 0.48828125 C9 1 9 1 11 4 C8 5 8 5 5 4 C4.67 5.32 4.34 6.64 4 8 C5.32 8.66 6.64 9.32 8 10 C8 10.66 8 11.32 8 12 C6.56206608 11.68950274 5.1246682 11.3765224 3.6875 11.0625 C2.88699219 10.88847656 2.08648437 10.71445313 1.26171875 10.53515625 C-1 10 -1 10 -4 9 C-4.6875 6.9375 -4.6875 6.9375 -5 5 C-2.525 5.495 -2.525 5.495 0 6 C0 5.34 0 4.68 0 4 C0.66 4 1.32 4 2 4 C2 3.01 2 2.02 2 1 C1.34 0.67 0.68 0.34 0 0 Z " fill="#CF834B" transform="translate(102,139)"/>
<path d="M0 0 C0 0.66 0 1.32 0 2 C1.98 2 3.96 2 6 2 C6 2.33 6 2.66 6 3 C8.97 3.33 11.94 3.66 15 4 C15 4.33 15 4.66 15 5 C10.05 5.66 5.1 6.32 0 7 C0 7.66 0 8.32 0 9 C-1.32 9.33 -2.64 9.66 -4 10 C-4.33 8.35 -4.66 6.7 -5 5 C-3.35 4.67 -1.7 4.34 0 4 C-3.13349732 2.95550089 -3.98968256 3.06576355 -7 4 C-7 3.01 -7 2.02 -7 1 C-4.53721199 -0.231394 -2.7204945 -0.07159196 0 0 Z " fill="#CD7A47" transform="translate(109,83)"/>
<path d="M0 0 C1.65 1.65 3.3 3.3 5 5 C3.02 5.99 3.02 5.99 1 7 C0.56613908 10.87797662 0.56613908 10.87797662 2.5 12.75 C2.995 13.1625 3.49 13.575 4 14 C1.72970466 13.60856977 0.16591802 13.11258722 -1.75 11.8125 C-3.55639046 9.19323384 -3.19465465 7.11447443 -3 4 C-3 3.01 -3 2.02 -3 1 C-2.01 0.67 -1.02 0.34 0 0 Z " fill="#F19E5F" transform="translate(94,130)"/>
<path d="M0 0 C0.99 0.33 1.98 0.66 3 1 C5.63804589 0.60602665 5.63804589 0.60602665 8 0 C8.66 0.99 9.32 1.98 10 3 C8.35 3.33 6.7 3.66 5 4 C5.33 4.66 5.66 5.32 6 6 C3.69 6.33 1.38 6.66 -1 7 C-1.625 4.625 -1.625 4.625 -2 2 C-1.34 1.34 -0.68 0.68 0 0 Z " fill="#FD924A" transform="translate(100,85)"/>
<path d="M0 0 C0.66 0 1.32 0 2 0 C2.33 1.32 2.66 2.64 3 4 C1.88625 4.5878125 1.88625 4.5878125 0.75 5.1875 C-2.13847132 6.86689081 -2.13847132 6.86689081 -4 9.6875 C-6 12 -6 12 -8.75 12.3125 C-9.86375 12.1578125 -9.86375 12.1578125 -11 12 C-10.29875 11.505 -9.5975 11.01 -8.875 10.5 C-5.77357418 7.80310798 -3.65727434 4.97146791 -1.33203125 1.609375 C-0.89246094 1.07828125 -0.45289063 0.5471875 0 0 Z " fill="#DB8C55" transform="translate(143,128)"/>
<path d="M0 0 C3.3 0 6.6 0 10 0 C10.33 0.99 10.66 1.98 11 3 C7.7 3 4.4 3 1 3 C0.67 2.01 0.34 1.02 0 0 Z " fill="#FE974F" transform="translate(113,84)"/>
<path d="M0 0 C-0.33 0.66 -0.66 1.32 -1 2 C-1.66 2 -2.32 2 -3 2 C-3 2.66 -3 3.32 -3 4 C-4.65 4 -6.3 4 -8 4 C-8 2.68 -8 1.36 -8 0 C-2.25 -1.125 -2.25 -1.125 0 0 Z " fill="#FD9547" transform="translate(118,68)"/>
<path d="M0 0 C1.45945288 0.08708669 2.91765868 0.19526907 4.375 0.3125 C5.59316406 0.39951172 5.59316406 0.39951172 6.8359375 0.48828125 C9 1 9 1 11 4 C8 5 8 5 4 5 C3.34 4.67 2.68 4.34 2 4 C2 3.01 2 2.02 2 1 C1.34 0.67 0.68 0.34 0 0 Z " fill="#C58146" transform="translate(102,139)"/>
<path d="M0 0 C3.875 3.75 3.875 3.75 5 6 C4.01 7.485 4.01 7.485 3 9 C1.68 8.34 0.36 7.68 -1 7 C-0.67 6.34 -0.34 5.68 0 5 C0 4.67 0 4.34 0 4 C0 2.68 0 1.36 0 0 Z " fill="#D2844F" transform="translate(93,109)"/>
<path d="M0 0 C0.99 0 1.98 0 3 0 C3.66 1.32 4.32 2.64 5 4 C4.01 4.495 4.01 4.495 3 5 C3.99 5.66 4.98 6.32 6 7 C4.33388095 7.042721 2.66617115 7.04063832 1 7 C0 6 0 6 -0.0625 2.9375 C-0.041875 1.968125 -0.02125 0.99875 0 0 Z " fill="#FE944C" transform="translate(90,111)"/>
<path d="M0 0 C2.0625 0.4375 2.0625 0.4375 4 1 C4 2.32 4 3.64 4 5 C3.34 5 2.68 5 2 5 C2 5.66 2 6.32 2 7 C1.34 6.67 0.68 6.34 0 6 C-0.6875 3.5 -0.6875 3.5 -1 1 C-0.67 0.67 -0.34 0.34 0 0 Z " fill="#FD904C" transform="translate(91,131)"/>
<path d="M0 0 C0 3 0 3 -1.5 4.6875 C-1.995 5.120625 -2.49 5.55375 -3 6 C-3.66 5.67 -4.32 5.34 -5 5 C-3.35 3.35 -1.7 1.7 0 0 Z " fill="#000000" transform="translate(147,139)"/>
<path d="M0 0 C2.88575819 0.39803561 3.82189513 0.79009069 5.75 3.0625 C6.1625 3.701875 6.575 4.34125 7 5 C4.11562221 3.70700306 2.12780579 2.34058637 0 0 Z " fill="#000000" transform="translate(139,84)"/>
<path d="M0 0 C1.32 0.99 2.64 1.98 4 3 C3.67 3.66 3.34 4.32 3 5 C1.5 3.625 1.5 3.625 0 2 C0 1.34 0 0.68 0 0 Z " fill="#000000" transform="translate(146,89)"/>
<path d="M0 0 C0.66 0.33 1.32 0.66 2 1 C1.01 1 0.02 1 -1 1 C-0.67 0.67 -0.34 0.34 0 0 Z " fill="#000000" transform="translate(139,146)"/>
<path d="M0 0 C0.99 0.33 1.98 0.66 3 1 C2.01 1 1.02 1 0 1 C0 0.67 0 0.34 0 0 Z " fill="#000000" transform="translate(95,145)"/>
<path d="M0 0 C0.99 0.495 0.99 0.495 2 1 C1.67 1.66 1.34 2.32 1 3 C0.67 2.01 0.34 1.02 0 0 Z " fill="#000000" transform="translate(87,136)"/>
<path d="M0 0 C0 3 0 3 0 3 Z " fill="#000000" transform="translate(126,116)"/>
<path d="M0 0 C0 3 0 3 0 3 Z " fill="#000000" transform="translate(129,112)"/>
<path d="M0 0 C0 3 0 3 0 3 Z " fill="#000000" transform="translate(132,108)"/>
<path d="M0 0 C0.66 0.66 1.32 1.32 2 2 C1.01 1.67 0.02 1.34 -1 1 C-0.67 0.67 -0.34 0.34 0 0 Z " fill="#000000" transform="translate(131,99)"/>
<path d="M0 0 C0 3 0 3 0 3 Z " fill="#000000" transform="translate(130,72)"/>
<path d="M0 0 C0.99 0.495 0.99 0.495 2 1 C1.01 1.495 1.01 1.495 0 2 C0 1.34 0 0.68 0 0 Z " fill="#000000" transform="translate(110,136)"/>
<path d="M0 0 C0.66 0 1.32 0 2 0 C1.67 0.66 1.34 1.32 1 2 C0.67 1.34 0.34 0.68 0 0 Z " fill="#000000" transform="translate(120,134)"/>
<path d="M0 0 C0.99 0.495 0.99 0.495 2 1 C1.01 1.495 1.01 1.495 0 2 C0 1.34 0 0.68 0 0 Z " fill="#000000" transform="translate(126,131)"/>
<path d="M0 0 C0.33 0.66 0.66 1.32 1 2 C0.34 1.67 -0.32 1.34 -1 1 C-0.67 0.67 -0.34 0.34 0 0 Z " fill="#000000" transform="translate(123,120)"/>
<path d="M0 0 C0.66 0.66 1.32 1.32 2 2 C1.34 2 0.68 2 0 2 C0 1.34 0 0.68 0 0 Z " fill="#000000" transform="translate(75,118)"/>
<path d="M0 0 C0.66 0.66 1.32 1.32 2 2 C1.34 2 0.68 2 0 2 C0 1.34 0 0.68 0 0 Z " fill="#000000" transform="translate(137,117)"/>
<path d="M0 0 C0.33 0.66 0.66 1.32 1 2 C0.34 1.67 -0.32 1.34 -1 1 C-0.67 0.67 -0.34 0.34 0 0 Z " fill="#000000" transform="translate(97,118)"/>
<path d="M0 0 C0.99 0.495 0.99 0.495 2 1 C1.01 1.495 1.01 1.495 0 2 C0 1.34 0 0.68 0 0 Z " fill="#000000" transform="translate(83,99)"/>
<path d="M0 0 C0.66 0 1.32 0 2 0 C1.67 0.66 1.34 1.32 1 2 C0.67 1.34 0.34 0.68 0 0 Z " fill="#000000" transform="translate(154,84)"/>
<path d="M0 0 C0.99 0.495 0.99 0.495 2 1 C1.01 1.495 1.01 1.495 0 2 C0 1.34 0 0.68 0 0 Z " fill="#000000" transform="translate(96,84)"/>
<path d="M0 0 C0.66 0 1.32 0 2 0 C1.67 0.66 1.34 1.32 1 2 C0.67 1.34 0.34 0.68 0 0 Z " fill="#000000" transform="translate(107,73)"/>
<path d="M0 0 C0.66 0 1.32 0 2 0 C1.67 0.66 1.34 1.32 1 2 C0.67 1.34 0.34 0.68 0 0 Z " fill="#000000" transform="translate(129,66)"/>
<path d="M0 0 C2 1 2 1 2 1 Z " fill="#000000" transform="translate(103,150)"/>
<path d="M0 0 C2 1 2 1 2 1 Z " fill="#000000" transform="translate(101,149)"/>
<path d="M0 0 C2 1 2 1 2 1 Z " fill="#000000" transform="translate(136,148)"/>
<path d="M0 0 C2 1 2 1 2 1 Z " fill="#000000" transform="translate(103,137)"/>
<path d="" fill="#000000" transform="translate(0,0)"/>
<path d="" fill="#000000" transform="translate(0,0)"/>
<path d="" fill="#000000" transform="translate(0,0)"/>
<path d="" fill="#000000" transform="translate(0,0)"/>
<path d="M0 0 C2 1 2 1 2 1 Z " fill="#000000" transform="translate(116,122)"/>
<path d="" fill="#000000" transform="translate(0,0)"/>
<path d="" fill="#000000" transform="translate(0,0)"/>
<path d="M0 0 C2 1 2 1 2 1 Z " fill="#000000" transform="translate(116,111)"/>
<path d="" fill="#000000" transform="translate(0,0)"/>
<path d="" fill="#000000" transform="translate(0,0)"/>
<path d="M0 0 C2 1 2 1 2 1 Z " fill="#000000" transform="translate(123,106)"/>
<path d="" fill="#000000" transform="translate(0,0)"/>
<path d="" fill="#000000" transform="translate(0,0)"/>
<path d="M0 0 C2 1 2 1 2 1 Z " fill="#000000" transform="translate(127,103)"/>
<path d="" fill="#000000" transform="translate(0,0)"/>
<path d="M0 0 C2 1 2 1 2 1 Z " fill="#000000" transform="translate(103,93)"/>
<path d="" fill="#000000" transform="translate(0,0)"/>
<path d="M0 0 C2 1 2 1 2 1 Z " fill="#000000" transform="translate(136,82)"/>
<path d="M0 0 C2 1 2 1 2 1 Z " fill="#000000" transform="translate(99,82)"/>
<path d="M0 0 C2 1 2 1 2 1 Z " fill="#000000" transform="translate(134,81)"/>
<path d="M0 0 C2 1 2 1 2 1 Z " fill="#000000" transform="translate(101,81)"/>
<path d="" fill="#000000" transform="translate(0,0)"/>
<path d="" fill="#000000" transform="translate(0,0)"/>
<path d="" fill="#000000" transform="translate(0,0)"/>
<path d="" fill="#000000" transform="translate(0,0)"/>
<path d="" fill="#000000" transform="translate(0,0)"/>
<path d="" fill="#000000" transform="translate(0,0)"/>
<path d="" fill="#000000" transform="translate(0,0)"/>
<path d="" fill="#000000" transform="translate(0,0)"/>
<path d="" fill="#000000" transform="translate(0,0)"/>
<path d="" fill="#000000" transform="translate(0,0)"/>
<path d="" fill="#000000" transform="translate(0,0)"/>
<path d="" fill="#000000" transform="translate(0,0)"/>
<path d="" fill="#000000" transform="translate(0,0)"/>
<path d="" fill="#000000" transform="translate(0,0)"/>
<path d="" fill="#000000" transform="translate(0,0)"/>
<path d="" fill="#000000" transform="translate(0,0)"/>
<path d="" fill="#000000" transform="translate(0,0)"/>
<path d="" fill="#000000" transform="translate(0,0)"/>
<path d="" fill="#000000" transform="translate(0,0)"/>
<path d="" fill="#000000" transform="translate(0,0)"/>
<path d="" fill="#000000" transform="translate(0,0)"/>
<path d="" fill="#000000" transform="translate(0,0)"/>
<path d="" fill="#000000" transform="translate(0,0)"/>
<path d="" fill="#000000" transform="translate(0,0)"/>
<path d="" fill="#000000" transform="translate(0,0)"/>
<path d="" fill="#000000" transform="translate(0,0)"/>
<path d="" fill="#000000" transform="translate(0,0)"/>
<path d="" fill="#000000" transform="translate(0,0)"/>
<path d="" fill="#000000" transform="translate(0,0)"/>
<path d="" fill="#000000" transform="translate(0,0)"/>
<path d="" fill="#000000" transform="translate(0,0)"/>
<path d="" fill="#000000" transform="translate(0,0)"/>
<path d="" fill="#000000" transform="translate(0,0)"/>
<path d="" fill="#000000" transform="translate(0,0)"/>
<path d="" fill="#000000" transform="translate(0,0)"/>
<path d="" fill="#000000" transform="translate(0,0)"/>
<path d="" fill="#000000" transform="translate(0,0)"/>
<path d="" fill="#000000" transform="translate(0,0)"/>
<path d="" fill="#000000" transform="translate(0,0)"/>
<path d="" fill="#000000" transform="translate(0,0)"/>
<path d="" fill="#000000" transform="translate(0,0)"/>
<path d="" fill="#000000" transform="translate(0,0)"/>
<path d="" fill="#000000" transform="translate(0,0)"/>
<path d="" fill="#000000" transform="translate(0,0)"/>
<path d="" fill="#000000" transform="translate(0,0)"/>
<path d="" fill="#000000" transform="translate(0,0)"/>
<path d="" fill="#000000" transform="translate(0,0)"/>
<path d="" fill="#000000" transform="translate(0,0)"/>
<path d="" fill="#000000" transform="translate(0,0)"/>
<path d="" fill="#000000" transform="translate(0,0)"/>
<path d="" fill="#000000" transform="translate(0,0)"/>
<path d="" fill="#000000" transform="translate(0,0)"/>
<path d="" fill="#000000" transform="translate(0,0)"/>
<path d="" fill="#000000" transform="translate(0,0)"/>
<path d="" fill="#000000" transform="translate(0,0)"/>
<path d="" fill="#000000" transform="translate(0,0)"/>
<path d="" fill="#000000" transform="translate(0,0)"/>
<path d="" fill="#000000" transform="translate(0,0)"/>
<path d="" fill="#000000" transform="translate(0,0)"/>
<path d="" fill="#000000" transform="translate(0,0)"/>
<path d="" fill="#000000" transform="translate(0,0)"/>
<path d="" fill="#000000" transform="translate(0,0)"/>
<path d="" fill="#000000" transform="translate(0,0)"/>
<path d="" fill="#000000" transform="translate(0,0)"/>
<path d="" fill="#000000" transform="translate(0,0)"/>
<path d="" fill="#000000" transform="translate(0,0)"/>
<path d="" fill="#000000" transform="translate(0,0)"/>
<path d="" fill="#000000" transform="translate(0,0)"/>
<path d="" fill="#000000" transform="translate(0,0)"/>
<path d="" fill="#000000" transform="translate(0,0)"/>
<path d="" fill="#000000" transform="translate(0,0)"/>
<path d="" fill="#000000" transform="translate(0,0)"/>
<path d="" fill="#000000" transform="translate(0,0)"/>
<path d="" fill="#000000" transform="translate(0,0)"/>
<path d="" fill="#000000" transform="translate(0,0)"/>
<path d="" fill="#000000" transform="translate(0,0)"/>
<path d="" fill="#000000" transform="translate(0,0)"/>
<path d="" fill="#000000" transform="translate(0,0)"/>
<path d="" fill="#000000" transform="translate(0,0)"/>
<path d="" fill="#000000" transform="translate(0,0)"/>
<path d="" fill="#000000" transform="translate(0,0)"/>
<path d="" fill="#000000" transform="translate(0,0)"/>
<path d="" fill="#000000" transform="translate(0,0)"/>
<path d="" fill="#000000" transform="translate(0,0)"/>
<path d="" fill="#000000" transform="translate(0,0)"/>
<path d="" fill="#000000" transform="translate(0,0)"/>
<path d="" fill="#000000" transform="translate(0,0)"/>
<path d="" fill="#000000" transform="translate(0,0)"/>
<path d="" fill="#000000" transform="translate(0,0)"/>
<path d="" fill="#000000" transform="translate(0,0)"/>
<path d="" fill="#000000" transform="translate(0,0)"/>
<path d="" fill="#000000" transform="translate(0,0)"/>
<path d="" fill="#000000" transform="translate(0,0)"/>
<path d="" fill="#000000" transform="translate(0,0)"/>
<path d="" fill="#000000" transform="translate(0,0)"/>
<path d="" fill="#000000" transform="translate(0,0)"/>
<path d="" fill="#000000" transform="translate(0,0)"/>
</svg>
