<?xml version="1.0" encoding="UTF-8"?>
<svg version="1.1" xmlns="http://www.w3.org/2000/svg" width="32" height="32">
<path d="M0 0 C5.35877502 -0.52121824 8.5450392 1.10029774 12.875 4 C13.46796875 4.3815625 14.0609375 4.763125 14.671875 5.15625 C16.12244056 6.09209875 17.56235847 7.04441631 19 8 C18.40425532 15.14893617 18.40425532 15.14893617 16.8125 18.5 C14.22188661 20.64395591 12.27607102 20.20475444 9 20 C8.01 20.33 7.02 20.66 6 21 C1.71315772 17.39761153 1.05889686 12.28713086 0 7 C-0.19839071 4.59037948 -0.16126524 2.41897854 0 0 Z " fill="#FF9554" transform="translate(7,6)"/>
<path d="M0 0 C2.76440212 2.76440212 3.2073383 5.9407582 4.125 9.625 C4.39763672 10.68460938 4.39763672 10.68460938 4.67578125 11.765625 C5.1233641 13.50884243 5.56249462 15.25422611 6 17 C7.32 16.01 8.64 15.02 10 14 C10.99 14.99 11.98 15.98 13 17 C13.99 16.67 14.98 16.34 16 16 C15.01 14.35 14.02 12.7 13 11 C13.804375 10.87625 14.60875 10.7525 15.4375 10.625 C16.283125 10.41875 17.12875 10.2125 18 10 C18.33 9.34 18.66 8.68 19 8 C18.40425532 15.14893617 18.40425532 15.14893617 16.8125 18.5 C14.22188661 20.64395591 12.27607102 20.20475444 9 20 C8.01 20.33 7.02 20.66 6 21 C1.71315772 17.39761153 1.05889686 12.28713086 0 7 C-0.19839071 4.59037948 -0.16126524 2.41897854 0 0 Z " fill="#080808" transform="translate(7,6)"/>
<path d="M0 0 C2.475 0.99 2.475 0.99 5 2 C4.01 2.495 4.01 2.495 3 3 C3.99 6.63 4.98 10.26 6 14 C6.99 13.34 7.98 12.68 9 12 C9.66 12.33 10.32 12.66 11 13 C10.67 12.01 10.34 11.02 10 10 C11.32 9.67 12.64 9.34 14 9 C14 10.32 14 11.64 14 13 C14.33 13.99 14.66 14.98 15 16 C13.02 16.99 13.02 16.99 11 18 C10.34 17.01 9.68 16.02 9 15 C7.68 15.99 6.36 16.98 5 18 C2.89603589 12.06682122 1.24028238 6.17222879 0 0 Z " fill="#F0E5DE" transform="translate(8,6)"/>
<path d="M0 0 C3.65564909 0.68761019 6.51867272 2.25449545 9.75 4.0625 C10.73484375 4.61035156 11.7196875 5.15820312 12.734375 5.72265625 C13.48203125 6.14417969 14.2296875 6.56570312 15 7 C15 7.99 15 8.98 15 10 C14.01 10 13.02 10 12 10 C12 9.34 12 8.68 12 8 C11.13375 7.773125 10.2675 7.54625 9.375 7.3125 C5.35958105 5.75094819 3.14167478 3.91726944 0 1 C0 0.67 0 0.34 0 0 Z " fill="#898482" transform="translate(10,6)"/>
<path d="M0 0 C0 1.32 0 2.64 0 4 C0.33 4.99 0.66 5.98 1 7 C-0.98 7.99 -0.98 7.99 -3 9 C-3.66 8.01 -4.32 7.02 -5 6 C-5.99 6 -6.98 6 -8 6 C-7.01 5.01 -6.02 4.02 -5 3 C-4.34 3.33 -3.68 3.66 -3 4 C-3.33 3.01 -3.66 2.02 -4 1 C-2 0 -2 0 0 0 Z " fill="#E6D7CE" transform="translate(22,15)"/>
</svg>
