<?xml version="1.0" encoding="UTF-8"?>
<svg version="1.1" xmlns="http://www.w3.org/2000/svg" width="32" height="32">
<path d="M0 0 C2.33944736 0.28730055 4.6739143 0.61936779 7 1 C7.33 1.99 7.66 2.98 8 4 C10.31808364 5.03485877 12.65175298 6.0355414 15 7 C16.73776501 10.47553002 15.72877918 14.28135753 15 18 C13.4375 21.5625 13.4375 21.5625 12 24 C8.19900406 24.54783038 4.78135924 24.75627185 1 24 C-2.03590622 21.46067323 -3.67306635 18.71071711 -5 15 C-5.16718351 12.28572662 -4.78933181 10.64989964 -4 8 C-3.34 8 -2.68 8 -2 8 C-1.855625 6.865625 -1.71125 5.73125 -1.5625 4.5625 C-1 1 -1 1 0 0 Z " fill="#FF9351" transform="translate(11,4)"/>
<path d="M0 0 C1.5078125 1.23046875 1.5078125 1.23046875 3 3 C3.47840672 8.46007668 1.74820683 13.33999711 -1 18 C-4.80099594 18.54783038 -8.21864076 18.75627185 -12 18 C-15.03590622 15.46067323 -16.67306635 12.71071711 -18 9 C-18.16718351 6.28572662 -17.78933181 4.64989964 -17 2 C-16.67 2 -16.34 2 -16 2 C-15.34 4.97 -14.68 7.94 -14 11 C-13.34 11 -12.68 11 -12 11 C-12 12.32 -12 13.64 -12 15 C-8.7 14.67 -5.4 14.34 -2 14 C-0.02905192 9.07262981 0.1799928 5.21979128 0 0 Z " fill="#030303" transform="translate(24,10)"/>
<path d="M0 0 C0.66 0 1.32 0 2 0 C2 2.97 2 5.94 2 9 C1.01 9 0.02 9 -1 9 C-0.525625 9.763125 -0.05125 10.52625 0.4375 11.3125 C2 14 2 14 3 17 C5.31 17 7.62 17 10 17 C11.17571451 13.32589215 11.07366746 9.83070817 11 6 C10.01 5.67 9.02 5.34 8 5 C8 4.67 8 4.34 8 4 C9.65 4 11.3 4 13 4 C14.42151345 6.84302691 14.23922606 8.83025472 14 12 C13.15794312 14.4429441 12.12183792 16.66283767 11 19 C7.7 19 4.4 19 1 19 C1 17.68 1 16.36 1 15 C0.34 15 -0.32 15 -1 15 C-2.85776765 11.86501708 -3.20140476 9.62528568 -3 6 C-2.01 6 -1.02 6 0 6 C0 4.02 0 2.04 0 0 Z " fill="#E4E2E1" transform="translate(11,6)"/>
<path d="M0 0 C2.33944736 0.28730055 4.6739143 0.61936779 7 1 C7.33 1.99 7.66 2.98 8 4 C10.00016466 5.20882096 10.00016466 5.20882096 12 6 C9.36 6.33 6.72 6.66 4 7 C4 5.35 4 3.7 4 2 C2.68 2 1.36 2 0 2 C0 3.98 0 5.96 0 8 C-0.66 8 -1.32 8 -2 8 C-1.125 1.125 -1.125 1.125 0 0 Z " fill="#74706E" transform="translate(11,4)"/>
<path d="M0 0 C0.66 0 1.32 0 2 0 C2 2.97 2 5.94 2 9 C1.01 9 0.02 9 -1 9 C-0.34 10.65 0.32 12.3 1 14 C0.01 14.495 0.01 14.495 -1 15 C-2.85776765 11.86501708 -3.20140476 9.62528568 -3 6 C-2.01 6 -1.02 6 0 6 C0 4.02 0 2.04 0 0 Z " fill="#EEE9E6" transform="translate(11,6)"/>
</svg>
